<?xml version="1.0" encoding="utf-8"?>
<!-- Generator: Adobe Illustrator 17.1.0, SVG Export Plug-In . SVG Version: 6.00 Build 0)  -->
<!DOCTYPE svg PUBLIC "-//W3C//DTD SVG 1.1//EN" "http://www.w3.org/Graphics/SVG/1.1/DTD/svg11.dtd">
<svg version="1.1" id="Layer_1" xmlns="http://www.w3.org/2000/svg" xmlns:xlink="http://www.w3.org/1999/xlink" x="0px" y="0px"
	 viewBox="9.2 68 480.6 423" enable-background="new 9.2 68 480.6 423" xml:space="preserve">
<path fill="#F5F6F6" d="M249.5,491c7.3-30.2,30.5-42.3,69.7-36.1c57.6,11.3,86.3-38.4,67.6-61.9c8.2,7.6,32.2,3.2,29.1-11.1
	c19.3-3.6,23.3-15.1,17.7-24.3c55.6-25.3,12.1-51.1,56.2-78.1c-44-27-0.5-52.8-56.2-78.1c5.6-9.2,1.6-20.7-17.7-24.3
	c3-14.3-21-18.7-29.1-11.1c18.7-23.5-10.1-73.2-67.6-61.9c-39.2,6.1-62.4-5.9-69.7-36.1c-7.3,30.2-30.5,42.3-69.7,36.1
	c-57.6-11.3-86.3,38.4-67.6,61.9c-8.2-7.6-32.2-3.2-29.1,11.1c-19.3,3.6-23.3,15.1-17.7,24.3c-55.6,25.3-12.1,51.1-56.2,78.1
	c44,27,0.5,52.8,56.2,78.1c-5.6,9.2-1.6,20.7,17.7,24.3c-3,14.3,21,18.7,29.1,11.1c-18.7,23.5,10.1,73.2,67.6,61.9
	C219,448.7,242.2,460.8,249.5,491z"/>
</svg>
